# xmcd CD database file
#
# Track frame offsets:
#	150
#	18856
#	30620
#	44491
#	62453
#	75782
#	87813
#	103010
#	135289
#	163302
#	180416
#	200591
#	228029
#	254341
#	271290
#	287788
#	306991
#	329128
#
# Disc length: 4692 seconds
#
# Revision: 6
# Processed by: cddbd v1.5.2PL0 Copyright (c) Steve Scherf et al.
# Submitted via: CDex 1.51
#
DISCID=ec125212
DTITLE=''Песняры'' - ''Grand Collection. Часть 2''.
DYEAR=2008
DGENRE=Folklore
TTITLE0=''Поляны''.
TTITLE1=''Ласточка''.
TTITLE2=''Сказочный город''.
TTITLE3=''Берёзовый сок''.
TTITLE4=''Рушники''.
TTITLE5=''Белая Русь ты моя''.
TTITLE6=''Хлопец пашню пашет''.
TTITLE7=''Крик птицы''.
TTITLE8=''Дрозды''.
TTITLE9=''Вероника''.
TTITLE10=''Гитара''.
TTITLE11=''Памяти Виктора Хары''.
TTITLE12=''Журавли на Полесье летят''.
TTITLE13=''Весна''.
TTITLE14=''Ой, рано на Ивана''.
TTITLE15=''Соловьи Хатыни''.
TTITLE16=''Родина''.
TTITLE17=''Мой родной край''.
EXTD=YEAR: 2008
EXTT0=
EXTT1=
EXTT2=
EXTT3=
EXTT4=
EXTT5=
EXTT6=
EXTT7=
EXTT8=
EXTT9=
EXTT10=
EXTT11=
EXTT12=
EXTT13=
EXTT14=
EXTT15=
EXTT16=
EXTT17=
PLAYORDER=
